<?xml version="1.0" encoding="UTF-8"?>
<svg xmlns="http://www.w3.org/2000/svg" width="1400" height="900" viewBox="0 0 1400 900" font-family="Arial, sans-serif">
  <defs>
    <marker id="arr"         markerWidth="8" markerHeight="6" refX="7" refY="3" orient="auto"><polygon points="0 0,8 3,0 6" fill="#555"/></marker>
    <marker id="arr-green"   markerWidth="8" markerHeight="6" refX="7" refY="3" orient="auto"><polygon points="0 0,8 3,0 6" fill="#388e3c"/></marker>
    <marker id="arr-blue"    markerWidth="8" markerHeight="6" refX="7" refY="3" orient="auto"><polygon points="0 0,8 3,0 6" fill="#1565c0"/></marker>
    <marker id="arr-purple"  markerWidth="8" markerHeight="6" refX="7" refY="3" orient="auto"><polygon points="0 0,8 3,0 6" fill="#7b1fa2"/></marker>
    <marker id="arr-orange"  markerWidth="8" markerHeight="6" refX="7" refY="3" orient="auto"><polygon points="0 0,8 3,0 6" fill="#e65100"/></marker>
    <marker id="arr-red"     markerWidth="8" markerHeight="6" refX="7" refY="3" orient="auto"><polygon points="0 0,8 3,0 6" fill="#c62828"/></marker>
    <marker id="arr-dkblue"  markerWidth="8" markerHeight="6" refX="7" refY="3" orient="auto"><polygon points="0 0,8 3,0 6" fill="#1565c0"/></marker>
    <marker id="arr-pink"    markerWidth="8" markerHeight="6" refX="7" refY="3" orient="auto"><polygon points="0 0,8 3,0 6" fill="#c2185b"/></marker>
    <marker id="arr-dkgreen" markerWidth="8" markerHeight="6" refX="7" refY="3" orient="auto"><polygon points="0 0,8 3,0 6" fill="#388e3c"/></marker>
  </defs>
  <rect width="1400" height="900" fill="white"/>
  <rect x="28" y="388" width="78" height="78" rx="8" fill="#dae8fc" stroke="#6c8ebf" stroke-width="2"/>
  <rect x="40" y="398" width="54" height="36" rx="3" fill="white" stroke="#6c8ebf" stroke-width="1.5"/>
  <rect x="61" y="434" width="12" height="7" fill="#6c8ebf"/>
  <rect x="51" y="441" width="32" height="4" rx="1" fill="#6c8ebf"/>
  <text x="67" y="479" text-anchor="middle" font-size="11" fill="#333">사용자</text>
  <rect x="18" y="532" width="178" height="68" rx="6" fill="#f5f5f5" stroke="#999" stroke-width="1.5" stroke-dasharray="5,3"/>
  <text x="107" y="553" text-anchor="middle" font-size="10" font-weight="bold" fill="#555">DNS (가비아)</text>
  <text x="107" y="568" text-anchor="middle" font-size="9.5" fill="#666">daloa.kr &#x2192; Vercel</text>
  <text x="107" y="583" text-anchor="middle" font-size="9.5" fill="#666">api.daloa.kr &#x2192; EC2</text>
  <rect x="153" y="258" width="268" height="208" rx="8" fill="#f0fff0" stroke="#82b366" stroke-width="2"/>
  <text x="287" y="281" text-anchor="middle" font-size="12" font-weight="bold" fill="#2d6a2d">Vercel (daloa.kr)</text>
  <rect x="168" y="292" width="238" height="58" rx="6" fill="#d5e8d4" stroke="#82b366" stroke-width="1.5"/>
  <text x="287" y="315" text-anchor="middle" font-size="11" font-weight="bold" fill="#2d6a2d">Next.js 15</text>
  <text x="287" y="332" text-anchor="middle" font-size="10" fill="#555">App Router / SSR + ISR</text>
  <rect x="168" y="362" width="238" height="48" rx="6" fill="#e8f5e9" stroke="#82b366" stroke-width="1.5" stroke-dasharray="4,2"/>
  <text x="287" y="381" text-anchor="middle" font-size="10" fill="#388e3c">ISR Cache  (revalidate: 3600s)</text>
  <text x="287" y="397" text-anchor="middle" font-size="10" fill="#388e3c">배포 시 자동 무효화</text>
  <rect x="486" y="16" width="318" height="58" rx="8" fill="#f3e5f5" stroke="#7b1fa2" stroke-width="1.5"/>
  <text x="645" y="38" text-anchor="middle" font-size="11" font-weight="bold" fill="#7b1fa2">GitHub Actions</text>
  <text x="645" y="55" text-anchor="middle" font-size="10" fill="#555">main push &#x2192; AWS SSM &#x2192; EC2 자동 배포</text>
  <rect x="486" y="104" width="892" height="784" rx="10" fill="#fffde7" stroke="#d6b656" stroke-width="2.5"/>
  <text x="932" y="126" text-anchor="middle" font-size="12" font-weight="bold" fill="#795548">AWS EC2  (api.daloa.kr)</text>
  <rect x="516" y="216" width="548" height="638" rx="8" fill="#e3f2fd" stroke="#1565c0" stroke-width="1.5" stroke-dasharray="8,4"/>
  <text x="790" y="236" text-anchor="middle" font-size="10.5" font-style="italic" font-weight="bold" fill="#1565c0">Docker Compose  ·  network: daloa-net</text>
  <rect x="598" y="256" width="218" height="70" rx="6" fill="#fff9c4" stroke="#f9a825" stroke-width="1.5"/>
  <text x="707" y="277" text-anchor="middle" font-size="11" font-weight="bold" fill="#e65100">daloa-nginx</text>
  <text x="707" y="292" text-anchor="middle" font-size="10" fill="#555">Nginx  (Reverse Proxy / SSL)</text>
  <text x="707" y="307" text-anchor="middle" font-size="9.5" fill="#777">ports: 80 &#x2192; 443 &#x2192; :3001</text>
  <rect x="598" y="418" width="218" height="70" rx="6" fill="#ffe0b2" stroke="#e65100" stroke-width="1.5"/>
  <text x="707" y="439" text-anchor="middle" font-size="11" font-weight="bold" fill="#bf360c">daloa-nest</text>
  <text x="707" y="454" text-anchor="middle" font-size="10" fill="#555">NestJS  :3001</text>
  <text x="707" y="469" text-anchor="middle" font-size="9.5" fill="#777">depends_on: postgres, redis</text>
  <rect x="836" y="418" width="200" height="70" rx="6" fill="#ffcdd2" stroke="#c62828" stroke-width="1.5"/>
  <text x="936" y="439" text-anchor="middle" font-size="11" font-weight="bold" fill="#b71c1c">daloa-redis</text>
  <text x="936" y="454" text-anchor="middle" font-size="10" fill="#555">Redis 7-alpine</text>
  <text x="936" y="469" text-anchor="middle" font-size="9.5" fill="#777">sites · characters · youtube</text>
  <rect x="598" y="580" width="218" height="52" fill="#bbdefb"/>
  <line x1="598" y1="580" x2="598" y2="632" stroke="#1565c0" stroke-width="1.5"/>
  <line x1="816" y1="580" x2="816" y2="632" stroke="#1565c0" stroke-width="1.5"/>
  <path d="M 598 632 a 109 13 0 0 0 218 0" fill="#90caf9" stroke="#1565c0" stroke-width="1.5"/>
  <ellipse cx="707" cy="580" rx="109" ry="13" fill="#bbdefb" stroke="#1565c0" stroke-width="1.5"/>
  <text x="707" y="600" text-anchor="middle" font-size="11" font-weight="bold" fill="#0d47a1">daloa-postgres</text>
  <text x="707" y="615" text-anchor="middle" font-size="10" fill="#0d47a1">PostgreSQL 16</text>
  <text x="707" y="630" text-anchor="middle" font-size="9.5" fill="#1565c0">volume: postgres_data</text>
  <rect x="1082" y="216" width="264" height="568" rx="8" fill="#fce4ec" stroke="#c2185b" stroke-width="1.5"/>
  <text x="1214" y="237" text-anchor="middle" font-size="11" font-weight="bold" fill="#880e4f">외부 API</text>
  <rect x="1094" y="252" width="240" height="58" rx="5" fill="#f8bbd0" stroke="#c2185b" stroke-width="1"/>
  <text x="1214" y="274" text-anchor="middle" font-size="10" font-weight="bold" fill="#880e4f">YouTube Data API v3</text>
  <text x="1214" y="289" text-anchor="middle" font-size="9.5" fill="#555">일 10,000 유닛 / 순환 3키</text>
  <rect x="1094" y="324" width="240" height="58" rx="5" fill="#f8bbd0" stroke="#c2185b" stroke-width="1"/>
  <text x="1214" y="346" text-anchor="middle" font-size="10" font-weight="bold" fill="#880e4f">LostArk Open API</text>
  <text x="1214" y="361" text-anchor="middle" font-size="9.5" fill="#555">분당 100회 / rate limiter 80회</text>
  <rect x="1094" y="396" width="240" height="58" rx="5" fill="#f8bbd0" stroke="#c2185b" stroke-width="1"/>
  <text x="1214" y="418" text-anchor="middle" font-size="10" font-weight="bold" fill="#880e4f">Gemini API</text>
  <text x="1214" y="433" text-anchor="middle" font-size="9.5" fill="#555">직업 한줄평 AI 생성</text>
  <rect x="1094" y="468" width="240" height="58" rx="5" fill="#f8bbd0" stroke="#c2185b" stroke-width="1"/>
  <text x="1214" y="490" text-anchor="middle" font-size="10" font-weight="bold" fill="#880e4f">Kakao API</text>
  <text x="1214" y="505" text-anchor="middle" font-size="9.5" fill="#555">알림 · 리프레시 토큰 자동 갱신</text>
  <rect x="1094" y="540" width="240" height="58" rx="5" fill="#f8bbd0" stroke="#c2185b" stroke-width="1"/>
  <text x="1214" y="562" text-anchor="middle" font-size="10" font-weight="bold" fill="#880e4f">Crawlers (Python)</text>
  <text x="1214" y="577" text-anchor="middle" font-size="9.5" fill="#555">loawa.com &#x2192; LostArk &#x2192; DB</text>
  <rect x="1094" y="612" width="240" height="46" rx="5" fill="#f8bbd0" stroke="#c2185b" stroke-width="1" stroke-dasharray="4,2"/>
  <text x="1214" y="632" text-anchor="middle" font-size="9.5" fill="#880e4f">cron: 매일 04:00 KST</text>
  <text x="1214" y="647" text-anchor="middle" font-size="9" fill="#777">loawa.com 크롤 &#x2192; PostgreSQL 저장</text>
  <line x1="106" y1="427" x2="151" y2="362" stroke="#388e3c" stroke-width="1.8" marker-end="url(#arr-green)"/>
  <text x="92" y="408" font-size="9.5" fill="#388e3c">HTTPS</text>
  <text x="92" y="421" font-size="9.5" fill="#388e3c">(daloa.kr)</text>
  <line x1="406" y1="321" x2="484" y2="321" stroke="#1565c0" stroke-width="1.8" marker-end="url(#arr-blue)"/>
  <text x="408" y="315" font-size="9.5" fill="#1565c0">SSR fetch</text>
  <text x="408" y="328" font-size="9" fill="#1565c0">(api.daloa.kr)</text>
  <line x1="645" y1="74" x2="645" y2="102" stroke="#7b1fa2" stroke-width="1.8" stroke-dasharray="5,3" marker-end="url(#arr-purple)"/>
  <text x="650" y="92" font-size="9" fill="#7b1fa2">자동 배포</text>
  <line x1="707" y1="326" x2="707" y2="416" stroke="#e65100" stroke-width="1.8" marker-end="url(#arr-orange)"/>
  <text x="716" y="374" font-size="9.5" fill="#e65100">프록시 :3001</text>
  <line x1="816" y1="446" x2="834" y2="446" stroke="#c62828" stroke-width="1.8" marker-end="url(#arr-red)"/>
  <text x="817" y="440" font-size="9" fill="#c62828">&#x2460; 캐시 조회</text>
  <line x1="834" y1="462" x2="816" y2="462" stroke="#c62828" stroke-width="1.5" stroke-dasharray="4,2" marker-end="url(#arr-red)"/>
  <text x="817" y="476" font-size="9" fill="#c62828">&#x2461; 캐시 히트</text>
  <line x1="707" y1="488" x2="707" y2="566" stroke="#1565c0" stroke-width="1.8" marker-end="url(#arr-dkblue)"/>
  <text x="715" y="530" font-size="9.5" fill="#1565c0">&#x2462; 캐시 미스</text>
  <polyline points="816,610 1044,610 1044,453 1038,453" fill="none" stroke="#1565c0" stroke-width="1.5" stroke-dasharray="4,2" marker-end="url(#arr-dkblue)"/>
  <text x="1048" y="535" font-size="9.5" fill="#1565c0">&#x2463; 캐시</text>
  <text x="1048" y="548" font-size="9.5" fill="#1565c0">저장</text>
  <polyline points="816,488 1042,488 1042,550 1080,550" fill="none" stroke="#c2185b" stroke-width="1.5" marker-end="url(#arr-pink)"/>
  <text x="900" y="482" font-size="9.5" fill="#c2185b">외부 API 호출</text>
  <polyline points="598,454 486,454 486,386 406,386" fill="none" stroke="#388e3c" stroke-width="1.5" stroke-dasharray="5,3" marker-end="url(#arr-dkgreen)"/>
  <text x="488" y="430" font-size="9" fill="#388e3c">ISR 캐시 무효화</text>
  <text x="488" y="443" font-size="9" fill="#388e3c">(재시작 시)</text>
</svg>
